<?xml version="1.0" standalone="no"?><!DOCTYPE svg PUBLIC "-//W3C//DTD SVG 1.1//EN" "http://www.w3.org/Graphics/SVG/1.1/DTD/svg11.dtd"><svg t="1749455474523" class="icon" viewBox="0 0 1024 1024" version="1.1" xmlns="http://www.w3.org/2000/svg" p-id="17856" xmlns:xlink="http://www.w3.org/1999/xlink" width="200" height="200"><path d="M767.146667 355.328l184.149333-183.722667a67.968 67.968 0 1 0-96.042667-96.256l-184.32 183.893334c-2.474667 0.256-4.224 0.554667-6.570666 0.768-70.741333-41.088-152.746667-40.874667-215.893334 19.328a4.949333 4.949333 0 0 0-0.085333 6.869333l291.968 291.925333c1.834667 1.834667 5.12 1.749333 6.826667-0.085333 60.245333-63.146667 60.458667-145.194667 19.370666-215.978667 0.128-2.56 0.426667-4.181333 0.64-6.741333zM275.797333 206.933333a58.069333 58.069333 0 1 0 116.181334 0 58.069333 58.069333 0 0 0-116.181334 0z m351.957334 642.261334a72.789333 72.789333 0 1 0 145.706666 0 72.789333 72.789333 0 1 0-145.706666 0z m162.218666-76.885334a39.594667 39.594667 0 1 0 79.146667 0.042667 39.594667 39.594667 0 0 0-79.146667-0.042667zM396.373333 333.098667l291.029334 290.944c2.133333 2.133333 2.688 5.418667 1.109333 8.106666-15.786667 25.173333-95.146667 158.378667-116.309333 334.506667-0.213333 1.450667-1.706667 2.133333-3.072 1.621333l-98.816-59.562666c-0.853333-0.64-1.237333-1.749333-0.725334-2.688 9.344-19.456 98.218667-205.738667 89.173334-196.608-9.514667 9.514667-71.125333 74.965333-117.12 141.738666l-26.496 36.437334s-103.936-69.973333-136.106667-113.493334c-0.512-0.682667-0.597333-1.194667 0-1.792 21.205333-25.728 131.072-168.533333 131.072-168.533333L223.146667 715.733333a1.92 1.92 0 0 1-2.56-0.426666c-9.045333-10.026667-71.594667-78.933333-89.514667-111.36-0.426667-0.768-0.426667-1.28 0.213333-1.877334 17.792-14.421333 118.485333-99.626667 118.485334-99.626666l-141.738667 50.176c-1.024 0.213333-2.048-0.128-2.56-1.024l-52.437333-98.432c-0.725333-1.194667-0.213333-2.645333 1.237333-2.986667 25.002667-4.992 233.045333-48.213333 334.250667-117.930667a5.845333 5.845333 0 0 1 7.850666 0.853334z" fill="#000000" fill-opacity=".9" p-id="17857"></path></svg>