<?xml version="1.0" standalone="no"?><!DOCTYPE svg PUBLIC "-//W3C//DTD SVG 1.1//EN" "http://www.w3.org/Graphics/SVG/1.1/DTD/svg11.dtd"><svg class="icon" width="200px" height="200.00px" viewBox="0 0 1024 1024" version="1.1" xmlns="http://www.w3.org/2000/svg"><path d="M365.131 806.84l46.25 125.923L365.13 1024H253.408c0.002-155.62 111.723-217.16 111.723-217.16zM770.59 1024H658.867l-42.514-89.659 42.514-127.5c0.002-0.001 111.723 61.54 111.723 217.159z" fill="#E7886E" /><path d="M365.131 806.84h293.736V1024H365.13z" fill="#FBE29F" /><path d="M605.155 817.747c0 51.448-41.706 116.866-93.155 116.866s-93.155-65.418-93.155-116.866S460.55 724.592 512 724.592s93.155 41.708 93.155 93.155zM756.45 517.98a97.985 97.985 0 1 0 195.969 0 97.985 97.985 0 1 0-195.97 0z" fill="#FFCABD" /><path d="M169.566 497.44a342.434 342.434 0 1 0 684.868 0 342.434 342.434 0 1 0-684.868 0z" fill="#FFD3BC" /><path d="M864.647 353.505C962.422 91.847 836.355 0 512 0S61.58 91.847 159.353 353.505z" fill="#FBE29F" /><path d="M422.933 2.697C165.24 19.512 71.1 117.327 159.353 353.505h78.462c17.58-147.547 83.43-278.034 185.118-350.808z" fill="#FCCB88" /><path d="M424.362 828.536C309.19 744.394 233.064 598.974 233.064 433.649c0-55.06 6.622-108.823 19.23-159.394-35.546 41.324-61.397 91.222-74.027 146.17a88.66 88.66 0 0 0-8.703-0.43c-54.116 0-97.985 43.869-97.985 97.984s43.87 97.987 97.985 97.987c7.59 0 14.26-0.892 20.169-2.526 37.832 105.068 125.572 186.306 234.63 215.096z" fill="#FFCABD" /><path d="M882.169 326.792c-93.883-47.9-226.244-75.428-370.171-75.428-143.923 0-276.282 27.527-370.167 75.426-34.719 17.713-44.73 62.625-20.558 93.202v0.003c18.296 23.144 50.337 29.893 76.629 16.511 75.329-38.339 191.801-61.893 314.096-61.893 122.299 0 238.771 23.556 314.098 61.895 26.292 13.382 58.333 6.635 76.629-16.51 24.172-30.58 14.163-75.491-20.556-93.206zM459.516 128.3a66.028 52.484 90 1 0 104.968 0 66.028 52.484 90 1 0-104.968 0z" fill="#E7886E" /><path d="M233.066 563.826a75.18 59.87 0 1 0 150.361 0 75.18 59.87 0 1 0-150.36 0zM640.573 563.826a75.18 59.87 0 1 0 150.36 0 75.18 59.87 0 1 0-150.36 0z" fill="#FF9DB0" /><path d="M352.062 521.645a15.453 15.453 0 0 1-15.452-15.453v-30.733c0-8.536 6.918-15.452 15.452-15.452s15.453 6.916 15.453 15.452v30.733a15.453 15.453 0 0 1-15.453 15.453z m319.878 0a15.453 15.453 0 0 1-15.453-15.453v-30.733c0-8.536 6.919-15.452 15.453-15.452s15.452 6.916 15.452 15.452v30.733a15.453 15.453 0 0 1-15.452 15.453zM512 539.94a71.381 71.381 0 0 1-53.817-24.51 15.453 15.453 0 0 1 23.301-20.305 40.482 40.482 0 0 0 30.518 13.911 40.486 40.486 0 0 0 30.518-13.911 15.453 15.453 0 1 1 23.299 20.305A71.396 71.396 0 0 1 512 539.94z" fill="#423E4F" /><path d="M249.636 285.36c-39.658 11.28-75.952 25.18-107.803 41.43-34.719 17.713-44.73 62.625-20.558 93.202 18.296 23.145 50.337 29.894 76.629 16.512 10.924-5.56 22.74-10.798 35.288-15.71 0.87-46.575 6.484-92.102 16.444-135.434z" fill="#E27858" /></svg>